<mxfile host="app.diagrams.net" modified="2023-11-28T07:02:02.731Z" agent="Mozilla/5.0 (Windows NT 10.0; Win64; x64) AppleWebKit/537.36 (KHTML, like Gecko) Chrome/119.0.0.0 Safari/537.36 Edg/119.0.0.0" etag="m3FDQmokZNy6J7IttX0W" version="22.1.4" type="github">
  <diagram name="Page-1" id="EsuxcIccbEYDoDGnZC4g">
    <mxGraphModel dx="985" dy="616" grid="1" gridSize="10" guides="1" tooltips="1" connect="1" arrows="1" fold="1" page="1" pageScale="1" pageWidth="827" pageHeight="1169" math="0" shadow="0">
      <root>
        <mxCell id="0" />
        <mxCell id="1" parent="0" />
        <mxCell id="TGQ-i3Uo1jviCgwpTV5W-1" value="" style="rhombus;whiteSpace=wrap;html=1;fillColor=#f8cecc;strokeColor=#b85450;" vertex="1" parent="1">
          <mxGeometry x="331" y="185" width="80" height="80" as="geometry" />
        </mxCell>
        <mxCell id="TGQ-i3Uo1jviCgwpTV5W-2" value="" style="whiteSpace=wrap;html=1;aspect=fixed;fillColor=#dae8fc;strokeColor=#6c8ebf;" vertex="1" parent="1">
          <mxGeometry x="200" y="365" width="80" height="80" as="geometry" />
        </mxCell>
        <mxCell id="TGQ-i3Uo1jviCgwpTV5W-3" value="" style="whiteSpace=wrap;html=1;aspect=fixed;fillColor=#dae8fc;strokeColor=#6c8ebf;" vertex="1" parent="1">
          <mxGeometry x="340" y="354" width="80" height="80" as="geometry" />
        </mxCell>
        <mxCell id="TGQ-i3Uo1jviCgwpTV5W-5" value="API" style="text;html=1;strokeColor=none;fillColor=none;align=center;verticalAlign=middle;whiteSpace=wrap;rounded=0;" vertex="1" parent="1">
          <mxGeometry x="344" y="210" width="60" height="30" as="geometry" />
        </mxCell>
        <mxCell id="TGQ-i3Uo1jviCgwpTV5W-9" value="Commands" style="text;html=1;strokeColor=none;fillColor=none;align=center;verticalAlign=middle;whiteSpace=wrap;rounded=0;" vertex="1" parent="1">
          <mxGeometry x="350" y="385" width="60" height="30" as="geometry" />
        </mxCell>
        <mxCell id="TGQ-i3Uo1jviCgwpTV5W-12" value="Products" style="text;html=1;strokeColor=none;fillColor=none;align=center;verticalAlign=middle;whiteSpace=wrap;rounded=0;" vertex="1" parent="1">
          <mxGeometry x="210" y="393" width="60" height="30" as="geometry" />
        </mxCell>
        <mxCell id="TGQ-i3Uo1jviCgwpTV5W-21" value="" style="endArrow=classic;html=1;rounded=0;entryX=0.5;entryY=0;entryDx=0;entryDy=0;exitX=0.5;exitY=1;exitDx=0;exitDy=0;" edge="1" parent="1" source="TGQ-i3Uo1jviCgwpTV5W-1">
          <mxGeometry width="50" height="50" relative="1" as="geometry">
            <mxPoint x="370" y="325" as="sourcePoint" />
            <mxPoint x="240" y="365" as="targetPoint" />
            <Array as="points">
              <mxPoint x="371" y="325" />
              <mxPoint x="240" y="325" />
            </Array>
          </mxGeometry>
        </mxCell>
        <mxCell id="TGQ-i3Uo1jviCgwpTV5W-22" value="" style="endArrow=classic;html=1;rounded=0;entryX=-0.135;entryY=0.373;entryDx=0;entryDy=0;exitX=0.867;exitY=0.915;exitDx=0;exitDy=0;exitPerimeter=0;entryPerimeter=0;" edge="1" parent="1" source="TGQ-i3Uo1jviCgwpTV5W-51" target="TGQ-i3Uo1jviCgwpTV5W-10">
          <mxGeometry width="50" height="50" relative="1" as="geometry">
            <mxPoint x="520" y="295" as="sourcePoint" />
            <mxPoint x="410" y="305" as="targetPoint" />
            <Array as="points">
              <mxPoint x="550" y="395" />
            </Array>
          </mxGeometry>
        </mxCell>
        <mxCell id="TGQ-i3Uo1jviCgwpTV5W-23" value="" style="shape=cylinder3;whiteSpace=wrap;html=1;boundedLbl=1;backgroundOutline=1;size=15;fillColor=#1ba1e2;fontColor=#ffffff;strokeColor=#006EAF;" vertex="1" parent="1">
          <mxGeometry x="354" y="515" width="60" height="80" as="geometry" />
        </mxCell>
        <mxCell id="TGQ-i3Uo1jviCgwpTV5W-24" value="Postgres" style="text;html=1;strokeColor=none;fillColor=none;align=center;verticalAlign=middle;whiteSpace=wrap;rounded=0;" vertex="1" parent="1">
          <mxGeometry x="354" y="552" width="60" height="30" as="geometry" />
        </mxCell>
        <mxCell id="TGQ-i3Uo1jviCgwpTV5W-27" value="" style="endArrow=none;html=1;rounded=0;" edge="1" parent="1">
          <mxGeometry width="50" height="50" relative="1" as="geometry">
            <mxPoint x="370" y="135" as="sourcePoint" />
            <mxPoint x="370" y="105" as="targetPoint" />
            <Array as="points" />
          </mxGeometry>
        </mxCell>
        <mxCell id="TGQ-i3Uo1jviCgwpTV5W-30" value="" style="endArrow=classic;html=1;rounded=0;" edge="1" parent="1" target="TGQ-i3Uo1jviCgwpTV5W-28">
          <mxGeometry width="50" height="50" relative="1" as="geometry">
            <mxPoint x="370" y="155" as="sourcePoint" />
            <mxPoint x="370" y="185" as="targetPoint" />
          </mxGeometry>
        </mxCell>
        <mxCell id="TGQ-i3Uo1jviCgwpTV5W-33" style="edgeStyle=orthogonalEdgeStyle;rounded=0;orthogonalLoop=1;jettySize=auto;html=1;exitX=0.5;exitY=1;exitDx=0;exitDy=0;entryX=0.5;entryY=0;entryDx=0;entryDy=0;" edge="1" parent="1" source="TGQ-i3Uo1jviCgwpTV5W-28" target="TGQ-i3Uo1jviCgwpTV5W-1">
          <mxGeometry relative="1" as="geometry">
            <Array as="points">
              <mxPoint x="371" y="158" />
            </Array>
          </mxGeometry>
        </mxCell>
        <mxCell id="TGQ-i3Uo1jviCgwpTV5W-28" value="HTTP" style="text;html=1;strokeColor=none;fillColor=none;align=center;verticalAlign=middle;whiteSpace=wrap;rounded=0;" vertex="1" parent="1">
          <mxGeometry x="340" y="128" width="60" height="30" as="geometry" />
        </mxCell>
        <mxCell id="TGQ-i3Uo1jviCgwpTV5W-31" value="" style="shape=actor;whiteSpace=wrap;html=1;" vertex="1" parent="1">
          <mxGeometry x="351" y="42" width="40" height="60" as="geometry" />
        </mxCell>
        <mxCell id="TGQ-i3Uo1jviCgwpTV5W-34" value="Client" style="text;html=1;strokeColor=none;fillColor=none;align=center;verticalAlign=middle;whiteSpace=wrap;rounded=0;" vertex="1" parent="1">
          <mxGeometry x="340" y="72" width="60" height="30" as="geometry" />
        </mxCell>
        <mxCell id="TGQ-i3Uo1jviCgwpTV5W-35" value="" style="endArrow=classic;html=1;rounded=0;entryX=0;entryY=0;entryDx=0;entryDy=0;" edge="1" parent="1" target="TGQ-i3Uo1jviCgwpTV5W-24">
          <mxGeometry width="50" height="50" relative="1" as="geometry">
            <mxPoint x="240" y="448" as="sourcePoint" />
            <mxPoint x="290" y="398" as="targetPoint" />
            <Array as="points">
              <mxPoint x="240" y="552" />
            </Array>
          </mxGeometry>
        </mxCell>
        <mxCell id="TGQ-i3Uo1jviCgwpTV5W-36" value="" style="endArrow=classic;html=1;rounded=0;entryX=0.5;entryY=0;entryDx=0;entryDy=0;entryPerimeter=0;" edge="1" parent="1" target="TGQ-i3Uo1jviCgwpTV5W-23">
          <mxGeometry width="50" height="50" relative="1" as="geometry">
            <mxPoint x="384" y="445" as="sourcePoint" />
            <mxPoint x="389" y="515" as="targetPoint" />
          </mxGeometry>
        </mxCell>
        <mxCell id="TGQ-i3Uo1jviCgwpTV5W-38" value="" style="endArrow=classic;html=1;rounded=0;exitX=0.25;exitY=1;exitDx=0;exitDy=0;entryX=1;entryY=0.5;entryDx=0;entryDy=0;" edge="1" parent="1" source="TGQ-i3Uo1jviCgwpTV5W-4" target="TGQ-i3Uo1jviCgwpTV5W-24">
          <mxGeometry width="50" height="50" relative="1" as="geometry">
            <mxPoint x="337" y="580" as="sourcePoint" />
            <mxPoint x="411" y="630" as="targetPoint" />
            <Array as="points">
              <mxPoint x="650" y="567" />
            </Array>
          </mxGeometry>
        </mxCell>
        <mxCell id="TGQ-i3Uo1jviCgwpTV5W-44" value="" style="endArrow=none;html=1;rounded=0;exitX=1;exitY=0.5;exitDx=0;exitDy=0;entryX=0;entryY=0.5;entryDx=0;entryDy=0;" edge="1" parent="1" source="TGQ-i3Uo1jviCgwpTV5W-1" target="TGQ-i3Uo1jviCgwpTV5W-45">
          <mxGeometry width="50" height="50" relative="1" as="geometry">
            <mxPoint x="340" y="455" as="sourcePoint" />
            <mxPoint x="450" y="225" as="targetPoint" />
          </mxGeometry>
        </mxCell>
        <mxCell id="TGQ-i3Uo1jviCgwpTV5W-46" value="" style="whiteSpace=wrap;html=1;aspect=fixed;fillColor=#dae8fc;strokeColor=#6c8ebf;" vertex="1" parent="1">
          <mxGeometry x="670" y="505" width="80" height="80" as="geometry" />
        </mxCell>
        <mxCell id="TGQ-i3Uo1jviCgwpTV5W-47" value="OM/MOMO&amp;nbsp;&lt;br&gt;API provider" style="text;html=1;strokeColor=none;fillColor=none;align=center;verticalAlign=middle;whiteSpace=wrap;rounded=0;" vertex="1" parent="1">
          <mxGeometry x="680" y="528" width="60" height="30" as="geometry" />
        </mxCell>
        <mxCell id="TGQ-i3Uo1jviCgwpTV5W-48" value="" style="endArrow=classic;html=1;rounded=0;entryX=0.25;entryY=0;entryDx=0;entryDy=0;exitX=0.75;exitY=0;exitDx=0;exitDy=0;" edge="1" parent="1" source="TGQ-i3Uo1jviCgwpTV5W-4" target="TGQ-i3Uo1jviCgwpTV5W-46">
          <mxGeometry width="50" height="50" relative="1" as="geometry">
            <mxPoint x="540" y="226" as="sourcePoint" />
            <mxPoint x="390" y="405" as="targetPoint" />
          </mxGeometry>
        </mxCell>
        <mxCell id="TGQ-i3Uo1jviCgwpTV5W-51" value="" style="whiteSpace=wrap;html=1;aspect=fixed;fillColor=#dae8fc;strokeColor=#6c8ebf;" vertex="1" parent="1">
          <mxGeometry x="479" y="187" width="80" height="80" as="geometry" />
        </mxCell>
        <mxCell id="TGQ-i3Uo1jviCgwpTV5W-45" value="Auth" style="text;html=1;strokeColor=none;fillColor=none;align=center;verticalAlign=middle;whiteSpace=wrap;rounded=0;" vertex="1" parent="1">
          <mxGeometry x="490" y="210" width="60" height="30" as="geometry" />
        </mxCell>
        <mxCell id="TGQ-i3Uo1jviCgwpTV5W-54" value="" style="endArrow=classic;html=1;rounded=0;exitX=0.378;exitY=0.938;exitDx=0;exitDy=0;exitPerimeter=0;entryX=1;entryY=0.5;entryDx=0;entryDy=0;" edge="1" parent="1" target="TGQ-i3Uo1jviCgwpTV5W-3">
          <mxGeometry width="50" height="50" relative="1" as="geometry">
            <mxPoint x="489.24" y="265" as="sourcePoint" />
            <mxPoint x="420" y="415" as="targetPoint" />
            <Array as="points">
              <mxPoint x="489" y="395" />
            </Array>
          </mxGeometry>
        </mxCell>
        <mxCell id="TGQ-i3Uo1jviCgwpTV5W-4" value="" style="whiteSpace=wrap;html=1;aspect=fixed;fillColor=#dae8fc;strokeColor=#6c8ebf;" vertex="1" parent="1">
          <mxGeometry x="630" y="356" width="80" height="80" as="geometry" />
        </mxCell>
        <mxCell id="TGQ-i3Uo1jviCgwpTV5W-10" value="Payment" style="text;html=1;strokeColor=none;fillColor=none;align=center;verticalAlign=middle;whiteSpace=wrap;rounded=0;" vertex="1" parent="1">
          <mxGeometry x="640" y="384" width="60" height="28" as="geometry" />
        </mxCell>
      </root>
    </mxGraphModel>
  </diagram>
</mxfile>
